# xmcd CD database file
#
# Track frame offsets:
#	150
#	23735
#	40539
#	60170
#	78876
#	98482
#	118573
#	140759
#	160992
#	183190
#	202767
#	218862
#	238090
#	260949
#
# Disc length: 3841 seconds
#
# Revision: 0
# Processed by: cddbd v1.5.1PL0 Copyright (c) Steve Scherf et al.
# Submitted via: CDex 1.51
#
DISCID=b10eff0e
DTITLE=菅原祥子 - Sati's-faction
DYEAR=1900
DGENRE=J ポップ
TTITLE0=おサカナになりたい〜1000Wに願いを〜
TTITLE1=Happy Birthday
TTITLE2=convenience story
TTITLE3=制服
TTITLE4=only you
TTITLE5=Satisfaction
TTITLE6=想い出がいっぱい
TTITLE7=笑顔いっぱい！
TTITLE8=ハートのスタートライン
TTITLE9=予感
TTITLE10=学園天国
TTITLE11=手をつないでいて
TTITLE12=Girls, Be Ambitious
TTITLE13=親愛なるあなたへ…
EXTD=
EXTT0=
EXTT1=
EXTT2=
EXTT3=
EXTT4=
EXTT5=
EXTT6=
EXTT7=
EXTT8=
EXTT9=
EXTT10=
EXTT11=
EXTT12=
EXTT13=
PLAYORDER=
